HIERARCHY
ROOT root
{
	OFFSET 0.000000 0.000000 0.000000
	CHANNELS 6 Xposition Yposition Zposition Zrotation Yrotation Xrotation
	JOINT lhip
	{
		OFFSET 0.058581 -0.082280 -0.017664
		CHANNELS 3 Zrotation Yrotation Xrotation
		JOINT lknee
		{
			OFFSET 0.043451 -0.386469 0.008037
			CHANNELS 3 Zrotation Yrotation Xrotation
			JOINT lankle
			{
				OFFSET -0.014790 -0.426874 -0.037428
				CHANNELS 3 Zrotation Yrotation Xrotation
				JOINT ltoe
				{
					OFFSET 0.041054 -0.060286 0.122042
					CHANNELS 3 Zrotation Yrotation Xrotation
					End Site
					{
						OFFSET 0.000000 0.000000 0.000000
					}
				}
			}
		}
	}
	JOINT rhip
	{
		OFFSET -0.060310 -0.090513 -0.013543
		CHANNELS 3 Zrotation Yrotation Xrotation
		JOINT rknee
		{
			OFFSET -0.043257 -0.383688 -0.004843
			CHANNELS 3 Zrotation Yrotation Xrotation
			JOINT rankle
			{
				OFFSET 0.019056 -0.420046 -0.034562
				CHANNELS 3 Zrotation Yrotation Xrotation
				JOINT rtoe
				{
					OFFSET -0.034840 -0.062106 0.130323
					CHANNELS 3 Zrotation Yrotation Xrotation
					End Site
					{
						OFFSET 0.000000 0.000000 0.000000
					}
				}
			}
		}
	}
	JOINT lowerback
	{
		OFFSET 0.004439 0.124404 -0.038385
		CHANNELS 3 Zrotation Yrotation Xrotation
		JOINT upperback
		{
			OFFSET 0.004488 0.137956 0.026820
			CHANNELS 3 Zrotation Yrotation Xrotation
			JOINT chest
			{
				OFFSET -0.002265 0.056032 0.002855
				CHANNELS 3 Zrotation Yrotation Xrotation
				JOINT lowerneck
				{
					OFFSET -0.013390 0.211636 -0.033468
					CHANNELS 3 Zrotation Yrotation Xrotation
					JOINT upperneck
					{
						OFFSET 0.010113 0.088937 0.050410
						CHANNELS 3 Zrotation Yrotation Xrotation
						End Site
						{
							OFFSET 0.000000 0.000000 0.000000
						}
					}
				}
				JOINT lclavicle
				{
					OFFSET 0.071702 0.114000 -0.018898
					CHANNELS 3 Zrotation Yrotation Xrotation
					JOINT lshoulder
					{
						OFFSET 0.122921 0.045205 -0.019046
						CHANNELS 3 Zrotation Yrotation Xrotation
						JOINT lelbow
						{
							OFFSET 0.255332 -0.015649 -0.022946
							CHANNELS 3 Zrotation Yrotation Xrotation
							JOINT lwrist
							{
								OFFSET 0.265709 0.012698 -0.007375
								CHANNELS 3 Zrotation Yrotation Xrotation
								End Site
								{
									OFFSET 0.000000 0.000000 0.000000
								}
							}
						}
					}
				}
				JOINT rclavicle
				{
					OFFSET -0.082954 0.112472 -0.023707
					CHANNELS 3 Zrotation Yrotation Xrotation
					JOINT rshoulder
					{
						OFFSET -0.113228 0.046853 -0.008472
						CHANNELS 3 Zrotation Yrotation Xrotation
						JOINT relbow
						{
							OFFSET -0.260127 -0.014369 -0.031269
							CHANNELS 3 Zrotation Yrotation Xrotation
							JOINT rwrist
							{
								OFFSET -0.269108 0.006794 -0.006027
								CHANNELS 3 Zrotation Yrotation Xrotation
								End Site
								{
									OFFSET 0.000000 0.000000 0.000000
								}
							}
						}
					}
				}
			}
		}
	}
}
MOTION
Frames: 11
Frame Time: 0.033333
0.335710 0.172145 0.992262 83.210389 2.326294 92.867634 10.229967 2.824996 3.634699 -4.920768 7.304131 -6.494877 -0.311126 9.988152 0.198769 0.000000 -0.000000 0.000000 -5.018320 -3.506477 -4.662952 1.553315 1.150960 0.621230 5.282458 -1.994940 -0.794962 0.000000 -0.000000 0.000000 -5.154132 2.614834 1.184063 -4.128863 2.869869 2.084384 1.752054 3.026871 2.759951 11.406316 -10.881718 3.592414 15.540466 1.876491 7.682283 -9.066202 -8.621648 -10.412037 -55.284487 -35.752994 8.781258 103.404127 -50.497702 -101.048084 25.716251 7.249987 -54.861564 -6.638378 19.827526 -8.856321 31.368650 49.273472 10.417774 -144.580206 80.571472 -125.744842 -12.424897 14.819680 -12.625342 
0.335343 0.171287 0.992470 83.009068 2.364217 92.840516 10.257328 2.942310 3.692618 -4.918869 7.476144 -6.574963 -0.338251 9.875009 0.201641 0.000000 -0.000000 0.000000 -4.947251 -3.403549 -4.678275 1.546728 1.116650 0.557036 5.243722 -1.793565 -0.704014 0.000000 -0.000000 0.000000 -5.109735 2.666615 1.245191 -4.200619 2.906981 2.041182 1.762290 3.060074 2.828478 11.850206 -10.413637 3.746397 15.311922 2.514745 8.142481 -8.835810 -9.103706 -10.266359 -55.727108 -35.597938 8.974305 103.600505 -50.422466 -101.043265 25.628048 7.208132 -55.234898 -7.565515 20.915761 -9.315570 33.299717 51.509341 11.475484 -143.438547 79.780861 -124.867684 -12.255226 14.347357 -13.978492 
0.335107 0.170602 0.992896 82.811778 2.360254 92.808807 10.173457 3.091712 3.695791 -4.791637 7.586532 -6.516650 -0.460504 9.771929 0.150050 0.000000 -0.000000 0.000000 -4.902257 -3.286538 -4.710799 1.494483 1.042271 0.551730 5.206420 -1.619041 -0.671246 0.000000 -0.000000 0.000000 -4.905897 2.768885 1.571532 -4.264657 2.943446 2.010052 1.694855 2.936309 2.623861 12.255032 -10.053441 3.806698 15.353975 2.435862 8.058588 -8.635560 -9.306159 -10.044497 -56.177913 -35.377796 9.047922 103.830878 -50.654489 -101.012949 25.855777 7.201036 -55.509727 -8.118013 21.705658 -9.606313 35.594124 53.569005 12.856427 -143.181772 79.210677 -124.921307 -13.241537 13.881778 -15.374336 
0.335012 0.170236 0.993004 82.655519 2.334800 92.664919 10.121511 3.201236 3.852796 -4.759922 7.585838 -6.508685 -0.500856 9.744387 0.074355 0.000000 -0.000000 0.000000 -4.921649 -3.224196 -4.626372 1.466811 0.982027 0.594759 5.185257 -1.482114 -0.725600 0.000000 -0.000000 0.000000 -4.766762 2.615049 1.872262 -4.108181 2.837255 1.997301 1.857362 3.056813 2.728550 12.397309 -10.029820 3.811995 15.404815 2.580112 8.128648 -8.513424 -9.378946 -9.934832 -56.713587 -35.076679 9.177623 103.917381 -50.851554 -100.808449 26.591913 7.106796 -55.387560 -8.743140 22.456685 -9.779153 37.177465 54.576092 13.757517 -142.980990 78.644873 -125.094277 -14.144118 13.660833 -16.769054 
0.334978 0.170214 0.993204 82.679425 2.143177 92.720358 9.913254 3.288600 3.712822 -4.753859 7.454128 -6.430581 -0.451753 9.756907 0.063437 0.000000 -0.000000 0.000000 -5.103797 -3.272536 -4.730936 1.446875 0.927653 0.653540 5.136953 -1.452493 -0.756990 0.000000 -0.000000 0.000000 -4.402681 2.669259 2.368085 -4.180815 2.712236 1.832407 1.743198 2.903324 2.315301 12.534376 -10.323118 4.209207 15.847424 2.234833 8.091082 -8.344682 -9.179197 -9.641139 -57.132007 -34.689918 9.143123 104.392300 -51.012563 -101.016632 26.814705 7.946136 -55.337033 -8.609308 22.482392 -9.596147 38.636783 54.561474 14.502899 -144.122952 78.657442 -126.497265 -14.373864 13.464223 -17.986424 
0.334860 0.170580 0.993401 82.833775 1.921133 92.746135 9.663522 3.243931 3.559760 -4.749633 7.290737 -6.335729 -0.409856 9.809979 0.110593 0.000000 -0.000000 0.000000 -5.331651 -3.399118 -4.792995 1.415239 0.748485 0.708784 5.117261 -1.447369 -0.753900 0.000000 -0.000000 0.000000 -4.058309 2.376171 2.616438 -4.088971 2.493400 1.855293 1.796227 2.915850 2.457947 12.330826 -10.817626 4.422248 15.812442 2.194174 7.866850 -8.625497 -8.733724 -9.638620 -57.205211 -34.135331 9.460801 105.289575 -50.655502 -102.123882 26.226036 8.564435 -55.379971 -8.062930 22.144692 -9.272066 38.272210 53.765487 14.351137 -143.137706 79.000810 -126.477632 -13.887158 13.659227 -19.504790 
0.334662 0.171160 0.993636 83.079316 1.715038 92.726783 9.467226 3.115472 3.476382 -4.819731 7.037936 -6.278563 -0.315180 9.912460 0.139287 0.000000 -0.000000 0.000000 -5.547934 -3.526607 -4.763404 1.396569 0.668941 0.722964 5.066075 -1.634541 -0.795616 0.000000 -0.000000 0.000000 -3.656226 2.217473 2.730415 -3.885072 2.316664 2.254244 1.838295 2.801195 2.479045 11.767382 -11.596461 4.866286 15.727240 1.979947 7.582040 -9.059250 -8.413552 -9.575568 -56.956741 -33.640587 9.539385 106.179108 -50.224863 -103.361698 25.818379 9.020708 -55.199966 -7.252622 21.588877 -8.873644 36.981231 51.873149 13.618974 -141.801508 79.468170 -126.153464 -12.751157 13.477663 -19.633529 
0.334651 0.171809 0.993602 83.413577 1.493981 92.707191 9.242555 2.999283 3.371569 -4.832861 6.708127 -6.221492 -0.252235 10.044517 0.161832 0.000000 -0.000000 0.000000 -5.786131 -3.705647 -4.732313 1.365732 0.612250 0.773685 5.046724 -1.806707 -0.925000 0.000000 -0.000000 0.000000 -3.444131 1.745329 2.614839 -3.606850 2.010938 2.586067 1.949893 2.961781 2.839867 10.955897 -12.384893 5.375975 15.595822 2.005772 7.261911 -9.770090 -8.057763 -9.649944 -56.280371 -33.209124 9.509348 107.202956 -49.810587 -104.798007 25.985360 9.021622 -54.660018 -6.077734 21.063097 -8.280792 34.886931 49.360483 12.339950 -138.640097 80.207579 -124.195793 -11.632609 13.907740 -19.239154 
0.334560 0.172237 0.993622 83.722666 1.330374 92.650867 9.121614 2.861334 3.268500 -4.872439 6.483114 -6.080968 -0.174968 10.129247 0.192232 0.000000 -0.000000 0.000000 -5.962981 -3.901155 -4.688599 1.360386 0.575652 0.865121 5.029612 -1.975574 -1.082316 0.000000 -0.000000 0.000000 -3.220699 1.405304 2.816595 -3.415488 1.796360 2.884395 1.945261 3.042406 2.890457 10.256436 -12.920607 5.583557 15.561660 1.813918 6.835692 -10.354080 -7.400412 -9.825536 -55.739457 -33.011282 9.436427 108.295551 -49.802443 -106.168457 26.085685 8.979469 -54.333169 -4.674803 20.155434 -7.475333 32.598993 46.843090 10.984147 -135.389932 81.061315 -121.658722 -11.695404 14.351128 -17.656182 
0.334680 0.172442 0.993529 83.917252 1.242966 92.631158 9.080561 2.730645 3.234685 -4.908893 6.286316 -6.059645 -0.144184 10.261031 0.246676 0.000000 -0.000000 0.000000 -6.082069 -4.000312 -4.650471 1.411611 0.585006 0.882589 5.085741 -2.155935 -1.143954 0.000000 -0.000000 0.000000 -3.096159 1.160938 3.089699 -3.292577 1.737080 2.912311 1.908192 3.104079 2.823981 9.623441 -13.368143 5.644479 15.510407 1.355214 6.733201 -10.775897 -6.714553 -9.931302 -55.367282 -32.987621 9.583268 109.202202 -50.028703 -107.129180 26.222369 8.857784 -54.309152 -3.372760 19.051737 -6.894128 30.883972 44.323612 10.063561 -127.947542 82.350310 -114.621042 -11.888818 14.818152 -16.339029 
0.334659 0.172578 0.993756 84.080948 1.187213 92.720523 9.026798 2.583271 3.086645 -4.882474 6.190497 -6.008593 -0.060094 10.325101 0.291833 0.000000 -0.000000 0.000000 -6.121860 -4.040039 -4.774881 1.419188 0.623322 0.984495 5.126553 -2.390999 -1.201860 0.000000 -0.000000 0.000000 -2.983164 1.369149 3.467244 -3.302141 1.884367 2.749408 1.729722 2.759265 2.437602 9.271142 -13.457208 5.843411 15.619917 0.998066 6.718021 -11.050999 -6.183548 -9.869839 -55.194577 -33.279755 9.783592 109.973886 -50.448349 -107.584267 26.070039 8.578109 -54.368087 -2.168894 17.638582 -6.370473 29.850704 42.041212 9.468872 -115.870065 83.638307 -102.363476 -11.162411 15.481179 -14.397181 
